<?xml version="1.0" encoding="UTF-8" standalone="no"?>
<!DOCTYPE svg PUBLIC "-//W3C//DTD SVG 1.1//EN"
 "http://www.w3.org/Graphics/SVG/1.1/DTD/svg11.dtd">
<!-- Generated by graphviz version 2.38.0 (20140413.2041)
 -->
<!-- Title: G Pages: 1 -->
<svg width="280pt" height="52pt"
 viewBox="0.00 0.00 280.00 52.00" xmlns="http://www.w3.org/2000/svg" xmlns:xlink="http://www.w3.org/1999/xlink">
<g id="graph0" class="graph" transform="scale(1 1) rotate(0) translate(4 48)">
<title>G</title>
<polygon fill="white" stroke="none" points="-4,4 -4,-48 276,-48 276,4 -4,4"/>
<!-- s -->
<!-- A -->
<g id="node2" class="node"><title>A</title>
<ellipse fill="white" stroke="black" cx="91" cy="-22" rx="18" ry="18"/>
<text text-anchor="middle" x="91" y="-18.3" font-family="Times,serif" font-size="14.00">A</text>
</g>
<!-- s&#45;&gt;A -->
<g id="edge1" class="edge"><title>s&#45;&gt;A</title>
<path fill="none" stroke="black" d="M36.1871,-22C44.2105,-22 53.9525,-22 62.9309,-22"/>
<polygon fill="black" stroke="black" points="62.9712,-25.5001 72.9712,-22 62.9711,-18.5001 62.9712,-25.5001"/>
</g>
<!-- B -->
<g id="node3" class="node"><title>B</title>
<ellipse fill="white" stroke="black" cx="168" cy="-22" rx="18" ry="18"/>
<text text-anchor="middle" x="168" y="-18.3" font-family="Times,serif" font-size="14.00">B</text>
</g>
<!-- A&#45;&gt;B -->
<g id="edge2" class="edge"><title>A&#45;&gt;B</title>
<path fill="none" stroke="black" d="M109.019,-22C118.064,-22 129.403,-22 139.649,-22"/>
<polygon fill="black" stroke="black" points="139.789,-25.5001 149.789,-22 139.789,-18.5001 139.789,-25.5001"/>
<text text-anchor="middle" x="129.5" y="-25" font-family="Times,serif" font-size="10.00">a</text>
</g>
<!-- C -->
<g id="node4" class="node"><title>C</title>
<ellipse fill="white" stroke="red" cx="250" cy="-22" rx="18" ry="18"/>
<ellipse fill="none" stroke="red" cx="250" cy="-22" rx="22" ry="22"/>
<text text-anchor="middle" x="250" y="-18.3" font-family="Times,serif" font-size="14.00">C</text>
</g>
<!-- B&#45;&gt;C -->
<g id="edge3" class="edge"><title>B&#45;&gt;C</title>
<path fill="none" stroke="black" d="M186.359,-22C195.527,-22 207.061,-22 217.725,-22"/>
<polygon fill="black" stroke="black" points="217.979,-25.5001 227.979,-22 217.979,-18.5001 217.979,-25.5001"/>
<text text-anchor="middle" x="207" y="-25" font-family="Times,serif" font-size="10.00">b</text>
</g>
</g>
</svg>
